<svg width="88" height="81" viewBox="0 0 88 81" fill="none" xmlns="http://www.w3.org/2000/svg">
<ellipse cx="44" cy="40.5" rx="44" ry="40.5" fill="black"/>
<g clip-path="url(#clip0_22_1877)">
<path d="M48.3247 55.8358L53.2483 34.1318L65.2744 31.4993L73.5912 38.6466L71.5452 49.856L48.3247 55.8358ZM48.3247 55.8358L60.1859 44.1686M75.2545 40.0761L63.611 30.0698L68.3017 25.4559L79.9452 35.4621L75.2545 40.0761ZM62.297 39.0265C64.0791 38.9665 65.5686 40.2465 65.6237 41.8854C65.6788 43.5243 64.2787 44.9014 62.4966 44.9614C60.7144 45.0213 59.225 43.7413 59.1698 42.1024C59.1147 40.4636 60.5148 39.0864 62.297 39.0265Z" stroke="white" stroke-width="4" stroke-linecap="round" stroke-linejoin="round"/>
</g>
<path d="M36.4952 39.25L44.2894 52.75C47.1762 57.75 43.5677 64 37.7942 64H22.2058C16.4323 64 12.8238 57.75 15.7106 52.75L23.5048 39.25C26.3916 34.25 33.6084 34.25 36.4952 39.25Z" fill="white"/>
<path d="M36.4952 39.25L44.2894 52.75C47.1762 57.75 43.5677 64 37.7942 64H22.2058C16.4323 64 12.8238 57.75 15.7106 52.75L23.5048 39.25C26.3916 34.25 33.6084 34.25 36.4952 39.25Z" fill="white"/>
<path d="M36.4952 39.25L44.2894 52.75C47.1762 57.75 43.5677 64 37.7942 64H22.2058C16.4323 64 12.8238 57.75 15.7106 52.75L23.5048 39.25C26.3916 34.25 33.6084 34.25 36.4952 39.25Z" stroke="white"/>
<path d="M47.5295 26.5556C47.5295 34.4376 39.8524 41.1111 30.0001 41.1111C20.1479 41.1111 12.4707 34.4376 12.4707 26.5556C12.4707 18.6735 20.1479 12 30.0001 12C39.8524 12 47.5295 18.6735 47.5295 26.5556Z" fill="white" stroke="white" stroke-width="2"/>
<defs>
<clipPath id="clip0_22_1877">
<rect width="35.6296" height="38.7449" fill="white" transform="translate(45.1975 58.9117) rotate(-91.9261)"/>
</clipPath>
</defs>
</svg>
