<svg width="88" height="81" viewBox="0 0 88 81" fill="none" xmlns="http://www.w3.org/2000/svg">
<ellipse cx="44" cy="40.5" rx="44" ry="40.5" fill="white"/>
<path d="M23.0718 39C26.151 33.6667 33.849 33.6667 36.9282 39L44.7224 52.5C47.8016 57.8333 43.9526 64.5 37.7942 64.5H22.2058C16.0474 64.5 12.1984 57.8333 15.2776 52.5L23.0718 39Z" fill="black"/>
<path d="M23.0718 39C26.151 33.6667 33.849 33.6667 36.9282 39L44.7224 52.5C47.8016 57.8333 43.9526 64.5 37.7942 64.5H22.2058C16.0474 64.5 12.1984 57.8333 15.2776 52.5L23.0718 39Z" fill="black"/>
<path d="M47.5294 26.5556C47.5294 34.4376 39.8522 41.1111 30 41.1111C20.1477 41.1111 12.4706 34.4376 12.4706 26.5556C12.4706 18.6735 20.1477 12 30 12C39.8522 12 47.5294 18.6735 47.5294 26.5556Z" fill="black" stroke="black" stroke-width="2"/>
<g clip-path="url(#clip0_22_1878)">
<path d="M48.3247 55.8358L53.2483 34.1318L65.2744 31.4993L73.5912 38.6466L71.5452 49.856L48.3247 55.8358ZM48.3247 55.8358L60.1859 44.1686M75.2545 40.0761L63.611 30.0698L68.3017 25.4559L79.9452 35.4621L75.2545 40.0761ZM62.297 39.0265C64.0791 38.9665 65.5686 40.2465 65.6237 41.8854C65.6788 43.5243 64.2787 44.9014 62.4966 44.9614C60.7144 45.0213 59.225 43.7413 59.1698 42.1024C59.1147 40.4636 60.5148 39.0864 62.297 39.0265Z" stroke="#1E1E1E" stroke-width="4" stroke-linecap="round" stroke-linejoin="round"/>
</g>
<defs>
<clipPath id="clip0_22_1878">
<rect width="35.6296" height="38.7449" fill="white" transform="translate(45.1975 58.9117) rotate(-91.9261)"/>
</clipPath>
</defs>
</svg>
